<svg id="Calque_1" data-name="Calque 1" xmlns="http://www.w3.org/2000/svg" viewBox="0 0 181.6 100.84">
  <title>increase-loyalty</title>
  <g>
    <path d="M579.47,551H573.4a1,1,0,1,1,0-2h6.07a1,1,0,0,1,0,2Z" transform="translate(-409.22 -450.16)" style="fill: #323f59"/>
    <path d="M438.71,551h-4a1,1,0,0,1,0-2h4a1,1,0,0,1,0,2Z" transform="translate(-409.22 -450.16)" style="fill: #323f59"/>
    <path d="M584.83,551h-1a1,1,0,0,1,0-2h1a1,1,0,1,1,0,2Z" transform="translate(-409.22 -450.16)" style="fill: #323f59"/>
    <path d="M435.95,479.89a3.09,3.09,0,1,0-5,2.42l4.92,4.61,5.07-4.61a3.09,3.09,0,1,0-5-2.42Z" transform="translate(-409.22 -450.16)" style="fill: #ea3a6e"/>
    <path d="M466.23,456.34a3.09,3.09,0,1,0-5,2.42l4.92,4.61,5.07-4.61a3.09,3.09,0,1,0-5-2.42Z" transform="translate(-409.22 -450.16)" style="fill: #ea3a6e"/>
    <path d="M500.3,489.74a3.09,3.09,0,1,0-5,2.42l4.92,4.61,5.07-4.61a3.09,3.09,0,1,0-5-2.42Z" transform="translate(-409.22 -450.16)" style="fill: #ea3a6e"/>
    <path d="M500.78,482.14a1,1,0,0,1-1-.78c-2.23-10.08-11.25-18.35-23-21.08a1,1,0,0,1,.45-1.95c12.47,2.9,22.08,11.77,24.47,22.59a1,1,0,0,1-.76,1.19Z" transform="translate(-409.22 -450.16)" style="fill: #edcdd6"/>
    <path d="M439.52,473.58a1,1,0,0,1-.83-1.55,33.22,33.22,0,0,1,17.53-12.83,1,1,0,0,1,.62,1.9,31.22,31.22,0,0,0-16.48,12A1,1,0,0,1,439.52,473.58Z" transform="translate(-409.22 -450.16)" style="fill: #edcdd6"/>
    <path d="M455.81,513.32a1,1,0,0,1-.33-.06c-10.69-3.71-18.39-11.68-20.59-21.33a1,1,0,1,1,1.95-.45c2,9,9.26,16.4,19.3,19.88a1,1,0,0,1-.33,1.94Z" transform="translate(-409.22 -450.16)" style="fill: #edcdd6"/>
    <path d="M479.2,513.83a1,1,0,0,1-.28-2,31.6,31.6,0,0,0,16.92-11.69,1,1,0,0,1,1.63,1.15,33.61,33.61,0,0,1-18,12.45A1,1,0,0,1,479.2,513.83Z" transform="translate(-409.22 -450.16)" style="fill: #edcdd6"/>
    <g id="_Groupe_" data-name="&lt;Groupe&gt;">
      <g>
        <path d="M456.54,495.88v3.83h-3.27a1.92,1.92,0,1,1,0-3.83Z" transform="translate(-409.22 -450.16)" style="fill: #fcd7ca"/>
        <path d="M563.37,510.82v36a3.15,3.15,0,0,1-3.15,3.14H521a3.14,3.14,0,0,1-3.14-3.13V510.56a2.89,2.89,0,0,1,2.89-2.89h39.46A3.15,3.15,0,0,1,563.37,510.82ZM544.46,529a3.84,3.84,0,1,0-3.84,3.84A3.84,3.84,0,0,0,544.46,529Z" transform="translate(-409.22 -450.16)" style="fill: #f3f5f8"/>
        <path d="M540.62,525.17a3.84,3.84,0,1,1-3.83,3.83A3.84,3.84,0,0,1,540.62,525.17Z" transform="translate(-409.22 -450.16)" style="fill: #fff"/>
        <path d="M521,550h-4.5a3,3,0,0,1-3-3V510.62a3,3,0,0,1,3-3h4.27a2.89,2.89,0,0,0-2.89,2.89v36.31A3.14,3.14,0,0,0,521,550Z" transform="translate(-409.22 -450.16)" style="fill: #cdd3db"/>
        <path d="M516.51,550H477.75a3.2,3.2,0,0,1-3.21-3.2v-1.13h39V547A3,3,0,0,0,516.51,550Z" transform="translate(-409.22 -450.16)" style="fill: #cdd3db"/>
        <path d="M512.21,544v1.64h-7.67v-6h3.31A4.36,4.36,0,0,1,512.21,544Z" transform="translate(-409.22 -450.16)" style="fill: #fcd7ca"/>
        <rect x="88.74" y="89.51" width="6.58" height="6" style="fill: #fff"/>
        <path d="M469.46,539.67v6H450.94a3.37,3.37,0,0,1-3.37-3.37V528.12a10.8,10.8,0,0,1,10.8-10.8h2.68l.09.07-.09.12,3.51,4.77,2.92-3,2.91,3,3.52-4.77-.09-.12.09-.07h.75a10.8,10.8,0,0,1,10.8,10.8v11.55H498v6H483.71V544a4.36,4.36,0,0,0-4.36-4.36h-9.89Z" transform="translate(-409.22 -450.16)" style="fill: #79b3df"/>
        <path d="M483.71,544v1.64H476v-6h3.31A4.36,4.36,0,0,1,483.71,544Z" transform="translate(-409.22 -450.16)" style="fill: #fcd7ca"/>
        <path d="M481.3,479.81v16.07h-2.76v-7.13c-5,0-5.25-7-5.26-7.48,0,.49-.22,9.86-16.74,9.86v4.75h-3.27V483.63a11.39,11.39,0,0,1,11.37-11.36h.82a11.32,11.32,0,0,1,7.1,2.5,1.83,1.83,0,0,0,.42-.16,5.14,5.14,0,0,1,2.81-.86,5.26,5.26,0,0,1,3.89,1.78A6.37,6.37,0,0,1,481.3,479.81Z" transform="translate(-409.22 -450.16)" style="fill: #dfae99"/>
        <path d="M478.54,499.71v1.38a11.42,11.42,0,0,1-8.85,11.35,10.19,10.19,0,0,1-2.15.23,10,10,0,0,1-2.39-.28,10.77,10.77,0,0,1-5.39-3.11,11.85,11.85,0,0,1-3.22-8.19v-10c16.52,0,16.74-9.37,16.74-9.86,0,.43.24,7.48,5.26,7.48Zm-4.26-4.36a1.1,1.1,0,1,0-1.09,1.09A1.09,1.09,0,0,0,474.28,495.35Zm-4.43,7.27v-4a.87.87,0,0,0-1.73,0v4a.87.87,0,0,0,1.73,0Zm-4-7.27a1.09,1.09,0,1,0-1.09,1.09A1.09,1.09,0,0,0,465.88,495.35Z" transform="translate(-409.22 -450.16)" style="fill: #fcd7ca"/>
        <path d="M477.75,550H455.54v-4.33h19v1.13A3.2,3.2,0,0,0,477.75,550Z" transform="translate(-409.22 -450.16)" style="fill: #79b3df"/>
        <polygon points="66.82 89.51 66.82 95.51 65.32 95.51 60.24 95.51 60.24 89.51 66.82 89.51" style="fill: #fff"/>
        <g style="opacity: 0.5">
          <path d="M475,499.95a1.6,1.6,0,1,1-1.6,1.6A1.59,1.59,0,0,1,475,499.95Z" transform="translate(-409.22 -450.16)" style="fill: #f5a4b2"/>
        </g>
        <polygon points="64.6 67.23 64.69 67.35 61.17 72.12 58.26 69.14 60.49 67.25 60.49 67.24 62.94 65.16 64.6 67.23" style="fill: #fff"/>
        <path d="M473.19,494.25a1.1,1.1,0,1,1-1.1,1.1A1.09,1.09,0,0,1,473.19,494.25Z" transform="translate(-409.22 -450.16)" style="fill: #323f59"/>
        <path d="M469.85,498.58v4a.87.87,0,0,1-1.73,0v-4a.87.87,0,0,1,1.73,0Z" transform="translate(-409.22 -450.16)" style="fill: #f5a4b2"/>
        <path d="M469.71,517.4h0l-2.23,1.89-2.37-2v-4.74l0-.15a10,10,0,0,0,2.39.28,10.19,10.19,0,0,0,2.15-.23l0,.1Z" transform="translate(-409.22 -450.16)" style="fill: #fcd7ca"/>
        <polygon points="55.89 67.12 58.26 69.14 55.34 72.12 51.83 67.35 51.92 67.23 53.58 65.16 55.89 67.12" style="fill: #fff"/>
        <path d="M464.79,494.25a1.1,1.1,0,1,1-1.09,1.1A1.09,1.09,0,0,1,464.79,494.25Z" transform="translate(-409.22 -450.16)" style="fill: #323f59"/>
        <g style="opacity: 0.5">
          <path d="M462.1,499.95a1.6,1.6,0,1,1-1.61,1.6A1.6,1.6,0,0,1,462.1,499.95Z" transform="translate(-409.22 -450.16)" style="fill: #f5a4b2"/>
        </g>
        <path d="M478.54,495.88H481a1.91,1.91,0,0,1,1.91,1.91h0a1.91,1.91,0,0,1-1.91,1.91h-2.44" transform="translate(-409.22 -450.16)" style="fill: #fcd7ca"/>
      </g>
      <g>
        <path d="M568,551h-7.8a1,1,0,0,1,0-2H568a1,1,0,0,1,0,2Z" transform="translate(-409.22 -450.16)" style="fill: #323f59"/>
        <path d="M521,551h-3.14a1,1,0,0,1,0-2H521a1,1,0,0,1,0,2Z" transform="translate(-409.22 -450.16)" style="fill: #323f59"/>
        <path d="M477.75,551H443.89a1,1,0,1,1,0-2h33.86a1,1,0,0,1,0,2Z" transform="translate(-409.22 -450.16)" style="fill: #323f59"/>
        <path d="M560.22,551H521a4.14,4.14,0,0,1-4.14-4.13V510.56a3.89,3.89,0,0,1,3.89-3.89h39.46a4.15,4.15,0,0,1,4.15,4.15v36A4.15,4.15,0,0,1,560.22,551Zm-39.46-42.33a1.89,1.89,0,0,0-1.89,1.89v36.31A2.14,2.14,0,0,0,521,549h39.21a2.15,2.15,0,0,0,2.15-2.14v-36a2.15,2.15,0,0,0-2.15-2.15Z" transform="translate(-409.22 -450.16)" style="fill: #323f59"/>
        <path d="M517.87,551h-1.36a4,4,0,0,1-4-4V510.62a4,4,0,0,1,4-4h4.27a1,1,0,0,1,0,2h-4.27a2,2,0,0,0-2,2V547a2,2,0,0,0,2,2h1.36a1,1,0,0,1,0,2Z" transform="translate(-409.22 -450.16)" style="fill: #323f59"/>
        <path d="M516.51,551H477.75a4.21,4.21,0,0,1-4.21-4.2v-1.13a1,1,0,0,1,2,0v1.13a2.21,2.21,0,0,0,2.21,2.2h38.76a1,1,0,0,1,0,2Z" transform="translate(-409.22 -450.16)" style="fill: #323f59"/>
        <path d="M513.54,546.67H483.71a1,1,0,0,1,0-2h29.83a1,1,0,1,1,0,2Z" transform="translate(-409.22 -450.16)" style="fill: #323f59"/>
        <path d="M456.54,500.71h-3.27a2.92,2.92,0,1,1,0-5.83h3.27a1,1,0,0,1,0,2h-3.27a.92.92,0,1,0,0,1.83h3.27a1,1,0,1,1,0,2Z" transform="translate(-409.22 -450.16)" style="fill: #323f59"/>
        <path d="M467,509.29a3.94,3.94,0,0,1-3.6-1.86,1,1,0,1,1,1.72-1,2,2,0,0,0,1.88.88,1,1,0,0,1,0,2Z" transform="translate(-409.22 -450.16)" style="fill: #fff"/>
        <path d="M481,500.71h-1.27a1,1,0,1,1,0-2H481a.92.92,0,0,0,.64-1.56.81.81,0,0,0-.47-.25l-.17,0h-1.27a1,1,0,0,1,0-2H481a2.68,2.68,0,0,1,.52,0,2.78,2.78,0,0,1,1.55.81,2.92,2.92,0,0,1-2.07,5Z" transform="translate(-409.22 -450.16)" style="fill: #323f59"/>
        <path d="M467.54,513.67a11,11,0,0,1-2.63-.31A11.73,11.73,0,0,1,459,510a12.79,12.79,0,0,1-3.49-8.88v-10a1,1,0,0,1,2,0v10a10.8,10.8,0,0,0,2.94,7.5,9.75,9.75,0,0,0,4.89,2.83,9.17,9.17,0,0,0,4.1,0,10.44,10.44,0,0,0,8.06-10.37V489.66c-4-.69-5.19-5.46-5.26-8.37l2,0v0c0,.24.19,6.48,4.26,6.48a1,1,0,0,1,1,1v12.34a12.44,12.44,0,0,1-9.65,12.33A11.1,11.1,0,0,1,467.54,513.67Z" transform="translate(-409.22 -450.16)" style="fill: #323f59"/>
        <path d="M456.54,492.13a1,1,0,0,1,0-2c15.56,0,15.74-8.5,15.74-8.86a1,1,0,0,1,2,0C474.28,481.71,474.08,492.13,456.54,492.13Z" transform="translate(-409.22 -450.16)" style="fill: #323f59"/>
        <path d="M481.3,496.88a1,1,0,0,1-1-1V479.81a5.34,5.34,0,0,0-1.36-3.61,4.16,4.16,0,0,0-5.42-.75,2.6,2.6,0,0,1-.72.29,1,1,0,0,1-.87-.19,10.36,10.36,0,0,0-6.47-2.28h-.82a10.38,10.38,0,0,0-10.37,10.36v12.25a1,1,0,0,1-2,0V483.63a12.38,12.38,0,0,1,12.37-12.36h.82a12.37,12.37,0,0,1,7.23,2.34,6.08,6.08,0,0,1,3.1-.86,6.22,6.22,0,0,1,4.63,2.11,7.34,7.34,0,0,1,1.88,5v16.07A1,1,0,0,1,481.3,496.88Z" transform="translate(-409.22 -450.16)" style="fill: #323f59"/>
        <path d="M465.11,518.3a1,1,0,0,1-1-1v-4.78a1,1,0,0,1,2,0v4.74A1,1,0,0,1,465.11,518.3Z" transform="translate(-409.22 -450.16)" style="fill: #323f59"/>
        <path d="M469.71,518.4a1,1,0,0,1-1-1v-4.86a1,1,0,0,1,2,0v4.86A1,1,0,0,1,469.71,518.4Z" transform="translate(-409.22 -450.16)" style="fill: #323f59"/>
        <path d="M464.56,523.28h-.07a1,1,0,0,1-.74-.4l-3.51-4.77a1,1,0,0,1,0-1.19l.09-.12,1.68-2.1a1,1,0,0,1,1.43-.14l4.68,4a1,1,0,0,1,.07,1.46l-2.92,3A1,1,0,0,1,464.56,523.28Zm-2.25-5.75,2.36,3.21,1.35-1.37-3.08-2.62Z" transform="translate(-409.22 -450.16)" style="fill: #323f59"/>
        <path d="M470.39,523.28a1,1,0,0,1-.72-.3l-2.91-3a1,1,0,0,1,.07-1.46l2.14-1.81.09-.09,2.45-2.08a1,1,0,0,1,.74-.23,1,1,0,0,1,.68.37l1.77,2.22a1,1,0,0,1,0,1.19l-3.52,4.77a1,1,0,0,1-.74.4Zm-1.44-3.91,1.34,1.37,2.37-3.21-.63-.78-1.58,1.34-.09.09Z" transform="translate(-409.22 -450.16)" style="fill: #323f59"/>
        <path d="M483.71,546.67H450.94a4.37,4.37,0,0,1-4.37-4.37V528.12a11.81,11.81,0,0,1,11.8-11.8h2.68a1,1,0,1,1,0,2h-2.68a9.81,9.81,0,0,0-9.8,9.8V542.3a2.37,2.37,0,0,0,2.37,2.37h31.77V544a3.36,3.36,0,0,0-3.36-3.36H455.42a1,1,0,0,1-1-1V528.5a1,1,0,0,1,2,0v10.17h22.93a5.37,5.37,0,0,1,5.36,5.36v1.64A1,1,0,0,1,483.71,546.67Z" transform="translate(-409.22 -450.16)" style="fill: #323f59"/>
        <path d="M478.54,540.67a1,1,0,0,1-1-1V528.5a1,1,0,0,1,2,0v11.17A1,1,0,0,1,478.54,540.67Z" transform="translate(-409.22 -450.16)" style="fill: #323f59"/>
        <path d="M455.54,551a1,1,0,0,1-1-1v-4.33a1,1,0,0,1,2,0V550A1,1,0,0,1,455.54,551Z" transform="translate(-409.22 -450.16)" style="fill: #323f59"/>
        <path d="M476,546.67a1,1,0,0,1-1-1v-6a1,1,0,0,1,2,0v6A1,1,0,0,1,476,546.67Z" transform="translate(-409.22 -450.16)" style="fill: #323f59"/>
        <path d="M469.46,546.67a1,1,0,0,1-1-1v-6a1,1,0,0,1,2,0v6A1,1,0,0,1,469.46,546.67Z" transform="translate(-409.22 -450.16)" style="fill: #323f59"/>
        <path d="M512.21,546.67a1,1,0,0,1-1-1V544a3.36,3.36,0,0,0-3.36-3.36H485.46a1,1,0,0,1-1-1V528.12a9.81,9.81,0,0,0-9.8-9.8h-.75a1,1,0,0,1,0-2h.75a11.81,11.81,0,0,1,11.8,11.8v10.55h21.39a5.37,5.37,0,0,1,5.36,5.36v1.64A1,1,0,0,1,512.21,546.67Z" transform="translate(-409.22 -450.16)" style="fill: #323f59"/>
        <path d="M504.54,546.67a1,1,0,0,1-1-1v-6a1,1,0,0,1,2,0v6A1,1,0,0,1,504.54,546.67Z" transform="translate(-409.22 -450.16)" style="fill: #323f59"/>
        <path d="M498,546.67a1,1,0,0,1-1-1v-6a1,1,0,0,1,2,0v6A1,1,0,0,1,498,546.67Z" transform="translate(-409.22 -450.16)" style="fill: #323f59"/>
        <path d="M474.73,532.1h-2.64a1,1,0,1,1,0-2h2.64a1,1,0,0,1,0,2Z" transform="translate(-409.22 -450.16)" style="fill: #323f59"/>
        <path d="M467.48,525.84a1,1,0,0,1-.71-.3,1,1,0,0,1-.29-.7,1,1,0,0,1,.29-.71l.16-.13.17-.09.19-.06a1,1,0,0,1,.9.28,1,1,0,0,1,.29.71,1,1,0,0,1-.29.7A1,1,0,0,1,467.48,525.84Z" transform="translate(-409.22 -450.16)" style="fill: #fff"/>
        <line x1="58.26" y1="80.18" x2="58.26" y2="80.18" style="fill: none"/>
        <path d="M467.48,536.83a1,1,0,0,1-1-1,1,1,0,0,1,.08-.39,1,1,0,0,1,.21-.32l.16-.13.17-.09.19-.06a1.1,1.1,0,0,1,.57.06.94.94,0,0,1,.33.22,1,1,0,0,1,.21.32,1,1,0,0,1,.08.39,1,1,0,0,1-1,1Z" transform="translate(-409.22 -450.16)" style="fill: #fff"/>
        <path d="M540.62,533.84a4.83,4.83,0,0,1,0-9.67,1,1,0,0,1,0,2,2.83,2.83,0,1,0,2.84,2.83,1,1,0,0,1,2,0A4.85,4.85,0,0,1,540.62,533.84Z" transform="translate(-409.22 -450.16)" style="fill: #323f59"/>
      </g>
    </g>
    <path d="M587.32,490.06a3.5,3.5,0,1,1,3.5-3.5A3.5,3.5,0,0,1,587.32,490.06Zm0-5a1.5,1.5,0,1,0,1.5,1.5A1.5,1.5,0,0,0,587.32,485.07Z" transform="translate(-409.22 -450.16)" style="fill: #cdd3db"/>
    <path d="M581.85,525.83a1.67,1.67,0,1,1-1.67,1.66A1.67,1.67,0,0,1,581.85,525.83Z" transform="translate(-409.22 -450.16)" style="fill: #cdd3db"/>
    <path d="M422.73,459.1a1.67,1.67,0,1,1-1.67,1.66A1.67,1.67,0,0,1,422.73,459.1Z" transform="translate(-409.22 -450.16)" style="fill: #cdd3db"/>
    <path d="M540.62,502.22a1,1,0,0,1-1-1v-5a1,1,0,0,1,2,0v5A1,1,0,0,1,540.62,502.22Z" transform="translate(-409.22 -450.16)" style="fill: #677388"/>
    <path d="M543.81,502.22a1,1,0,0,1-.77-1.64l2.19-2.65a1,1,0,1,1,1.54,1.27l-2.19,2.65A1,1,0,0,1,543.81,502.22Z" transform="translate(-409.22 -450.16)" style="fill: #677388"/>
    <path d="M537.35,502.22a1,1,0,0,1-.77-.36l-2.19-2.65a1,1,0,1,1,1.54-1.27l2.19,2.65a1,1,0,0,1-.77,1.64Z" transform="translate(-409.22 -450.16)" style="fill: #677388"/>
    <path d="M419,522H417.6a1.56,1.56,0,0,1-1.52-1.23v-1.7a1.34,1.34,0,0,0-.73-1.2l-.08,0a1.11,1.11,0,0,0-.14-.06H415l-.23,0-.23,0h-.12a1.11,1.11,0,0,0-.14.06l-.08,0a1.34,1.34,0,0,0-.73,1.2v1.7a1.56,1.56,0,0,1-1.52,1.23H410.5a1.28,1.28,0,0,0-1.28,1.28h0a1.3,1.3,0,0,0,1.29,1.29h1.61a1.37,1.37,0,0,1,1.34,1.07v2a1.31,1.31,0,0,0,2.61,0v-2a1.37,1.37,0,0,1,1.34-1.07H419a1.3,1.3,0,0,0,1.29-1.29h0A1.28,1.28,0,0,0,419,522Z" transform="translate(-409.22 -450.16)" style="fill: #cdd3db"/>
    <path d="M526.41,453.25h-1a1.13,1.13,0,0,1-1.1-.89v-1.23a1,1,0,0,0-.53-.87l-.06,0-.1,0h-.09l-.17,0-.17,0h-.09l-.1,0-.06,0a1,1,0,0,0-.53.87v1.23a1.13,1.13,0,0,1-1.1.89h-1a.93.93,0,0,0-.93.93h0a.94.94,0,0,0,.94.94h1.17a1,1,0,0,1,1,.77v1.42a.95.95,0,0,0,1.89,0v-1.42a1,1,0,0,1,1-.77h1.17a.94.94,0,0,0,.94-.94h0A.93.93,0,0,0,526.41,453.25Z" transform="translate(-409.22 -450.16)" style="fill: #cdd3db"/>
    <g style="opacity: 0.2">
      <path d="M108.65,96.71h45.5a0,0,0,0,1,0,0v0A3.13,3.13,0,0,1,151,99.84H111.78a3.13,3.13,0,0,1-3.13-3.13v0A0,0,0,0,1,108.65,96.71Z" style="fill: #323f59"/>
    </g>
    <path d="M457.86,484.8a1,1,0,0,1-1-1,8.24,8.24,0,0,1,8.24-8.23,1,1,0,0,1,0,2,6.24,6.24,0,0,0-6.24,6.23A1,1,0,0,1,457.86,484.8Z" transform="translate(-409.22 -450.16)" style="fill: #fcd7ca"/>
    <path d="M461.18,485.36a1,1,0,0,1-1-1,5.47,5.47,0,0,1,5.47-5.46,1,1,0,0,1,0,2,3.47,3.47,0,0,0-3.47,3.46A1,1,0,0,1,461.18,485.36Z" transform="translate(-409.22 -450.16)" style="fill: #fcd7ca"/>
  </g>
</svg>
